<svg xmlns="http://www.w3.org/2000/svg" version="1.1" xmlns:xlink="http://www.w3.org/1999/xlink" xmlns:svgjs="http://svgjs.dev/svgjs" width="2000" height="989" viewBox="0 0 2000 989"><g transform="matrix(1,0,0,1,-1.2121212121213603,-0.42514546244029816)"><svg viewBox="0 0 396 196" data-background-color="#ffffff" preserveAspectRatio="xMidYMid meet" height="989" width="2000" xmlns="http://www.w3.org/2000/svg" xmlns:xlink="http://www.w3.org/1999/xlink"><g id="tight-bounds" transform="matrix(1,0,0,1,0.24000000000003752,0.08425531914893725)"><svg viewBox="0 0 395.5199999999999 195.83148936170213" height="195.83148936170213" width="395.5199999999999"><g><svg viewBox="0 0 395.5199999999999 195.83148936170213" height="195.83148936170213" width="395.5199999999999"><g><svg viewBox="0 0 395.5199999999999 195.83148936170213" height="195.83148936170213" width="395.5199999999999"><g id="textblocktransform"><svg viewBox="0 0 395.5199999999999 195.83148936170213" height="195.83148936170213" width="395.5199999999999" id="textblock"><g><svg viewBox="0 0 395.5199999999999 195.83148936170213" height="195.83148936170213" width="395.5199999999999"><g transform="matrix(1,0,0,1,0,0)"><svg width="395.5199999999999" viewBox="0 -32.16 90.23 44.68" height="195.83148936170213" data-palette-color="#000000"><path d="M3.36 0L3.36 0Q0 0 0-5.16L0-5.16Q0-8.16 1.52-11.76L1.52-11.76Q3.6-16.8 7-18.6L7-18.6Q8.48-19.4 9.68-19.4 10.88-19.4 11.52-18.98 12.16-18.56 12.36-18.12L12.36-18.12 12.56-17.68Q12.44-17 11.84-17 11.24-17 10.98-17.66 10.72-18.32 9.76-18.32L9.76-18.32Q7.16-18.32 5.12-13.72L5.12-13.72Q2.76-8.52 2.76-3.88L2.76-3.88Q2.76-1.44 3.76-1.44L3.76-1.44Q4.56-1.44 6.1-3.42 7.64-5.4 9.28-8.24L9.28-8.24Q11.52-12.16 13.24-15.4L13.24-15.4Q14.68-21.64 16.74-26.3 18.8-30.96 20.16-30.96L20.16-30.96Q20.84-30.96 20.84-30.28L20.84-30.28Q19.88-28.2 18.58-24.6 17.28-21 16.38-17.74 15.48-14.48 14.74-9.96 14-5.44 14-1.44L14-1.44Q14 4.52 16.6 4.52L16.6 4.52Q17.6 4.52 18.46 3.66 19.32 2.8 19.68 1.96L19.68 1.96Q19.88 1.52 20.4 1.72L20.4 1.72Q20.6 1.8 20.56 1.96L20.56 1.96Q20.32 2.48 19.96 3.16 19.6 3.84 18.54 4.84 17.48 5.84 16.4 5.84L16.4 5.84Q11.64 5.84 11.64-3.12L11.64-3.12Q11.64-6.28 12.2-9.88L12.2-9.88 11.68-9.88Q6.04 0 3.36 0ZM22.84 0L22.84 0Q19.56 0 19.56-5.16L19.56-5.16Q19.56-8.24 21.08-11.92L21.08-11.92Q23.2-17.08 26.64-18.96L26.64-18.96Q28.12-19.76 29.4-19.76 30.68-19.76 31.42-19.2 32.16-18.64 32.36-18.08L32.36-18.08 32.6-17.56Q32.48-16.88 31.92-16.88L31.92-16.88Q31.28-16.88 31.18-17.18 31.08-17.48 30.96-17.7 30.84-17.92 30.4-18.3 29.96-18.68 29.4-18.68L29.4-18.68Q26.8-18.68 24.68-14L24.68-14Q22.28-8.6 22.28-3.84L22.28-3.84Q22.28-1.44 23.24-1.44L23.24-1.44Q24-1.44 25.38-3.14 26.76-4.84 28.28-7.4L28.28-7.4Q30.92-11.8 32.56-15.04L32.56-15.04Q33.92-17.92 35.36-17.92L35.36-17.92Q36.12-17.92 36.12-17L36.12-17Q35.76-16.24 35.2-14.84 34.64-13.44 33.72-9.28 32.8-5.12 32.8-1 32.8 3.12 34.04 3.12L34.04 3.12Q34.52 3.12 34.92 2.7 35.32 2.28 35.64 1.44L35.64 1.44Q35.76 1 36.2 1L36.2 1Q36.36 1 36.44 1.12 36.52 1.24 36.44 1.52 36.36 1.8 36.16 2.3 35.96 2.8 35.3 3.64 34.64 4.48 33.92 4.48L33.92 4.48Q32.24 4.48 31.34 2.28 30.44 0.08 30.44-2.92 30.44-5.92 30.88-8.68L30.88-8.68 30.48-8.68Q25.4 0 22.84 0ZM40.95-17.32L40.95-17.32Q39.39-17.32 39.39-18.6L39.39-18.6Q39.39-19.08 39.8-19.2L39.8-19.2Q39.84-19.24 39.91-19.24L39.91-19.24Q40.16-18.96 40.81-18.96 41.48-18.96 42.91-19.04L42.91-19.04Q44.8-24.12 46.52-24.12L46.52-24.12Q47.2-24.12 47.2-23.36L47.2-23.36Q46.55-21.76 45.75-19.24L45.75-19.24Q49.72-19.68 50.91-19.68L50.91-19.68Q51.23-19.68 51.23-19.36L51.23-19.36Q51.23-18.72 50.39-18.72L50.39-18.72Q49.95-18.72 45.31-17.88L45.31-17.88Q42.16-7.88 42.16-1.68 42.16 4.52 44.63 4.52L44.63 4.52Q45.63 4.52 46.52 3.66 47.39 2.8 47.75 1.96L47.75 1.96Q47.91 1.52 48.44 1.72L48.44 1.72Q48.67 1.8 48.59 1.96L48.59 1.96Q48.35 2.48 47.99 3.16 47.63 3.84 46.59 4.84 45.55 5.84 44.48 5.84L44.48 5.84Q39.71 5.84 39.71-2.44L39.71-2.44Q39.71-9.44 42.31-17.4L42.31-17.4Q41.75-17.32 40.95-17.32ZM60.59-19.4L60.59-19.4Q63.63-19.4 63.63-15.84L63.63-15.84Q63.63-13.8 62.27-11.56L62.27-11.56Q59.95-7.84 56.11-7.84L56.11-7.84Q55.51-7.84 55.11-8.04 54.71-8.24 54.51-8.64L54.51-8.64Q57.35-8.64 59.71-11.92L59.71-11.92Q61.63-14.56 61.63-16.76L61.63-16.76Q61.63-18.4 60.31-18.4L60.31-18.4Q57.67-18.4 55.39-14.28L55.39-14.28Q52.95-9.8 52.95-5.08L52.95-5.08Q52.95-1.08 55.23-0.28L55.23-0.28Q55.67-0.12 56.35-0.12 57.03-0.12 57.79-0.46 58.55-0.8 59.07-1.28L59.07-1.28Q60.11-2.24 60.79-3.4L60.79-3.4Q60.95-3.72 61.39-3.72L61.39-3.72Q62.11-3.72 62.07-3.48L62.07-3.48Q61.95-3.04 61.17-2 60.39-0.96 59.73-0.34 59.07 0.28 58.01 0.78 56.95 1.28 55.87 1.28L55.87 1.28Q51.63 1.28 50.47-2.72L50.47-2.72Q50.11-4.08 50.11-5.52L50.11-5.52Q50.11-8.2 51.35-11.36L51.35-11.36Q53.31-16.16 56.75-18.28L56.75-18.28Q58.63-19.4 60.59-19.4ZM64.03 12.52L64.03 12.52Q61.99 12.52 61.99 10.08L61.99 10.08Q61.99 8.36 63.07 5.36 64.15 2.36 65.23 0.16L65.23 0.16Q67.19-3.68 68.03-5.12L68.03-5.12Q68.95-13.72 69.67-17.44L69.67-17.44Q68.71-17.32 67.75-17.32 66.79-17.32 66.59-18.32L66.59-18.32Q66.59-19.12 67.07-19.24L67.07-19.24Q67.23-19 68.23-19 69.23-19 70.03-19.08L70.03-19.08Q72.63-31.04 78.91-31.04L78.91-31.04Q79.71-31.04 79.67-30.44L79.67-30.44Q79.63-30.04 79.39-30.04L79.39-30.04Q76.67-30.04 75.03-27.2 73.39-24.36 72.39-19.24L72.39-19.24Q77.15-19.6 78.19-19.6L78.19-19.6Q78.55-19.6 78.49-19.12 78.43-18.64 77.67-18.64 76.91-18.64 72.11-17.84L72.11-17.84Q71.59-14.88 71.01-9.24 70.43-3.6 70.07-0.64 69.71 2.32 69.23 4.56 68.75 6.8 68.07 8.68L68.07 8.68Q66.67 12.52 64.03 12.52ZM64.07 11.36L64.07 11.36Q65.31 11.36 65.95 9.28L65.95 9.28Q66.67 7 66.99 4.52L66.99 4.52Q67.47 0.8 67.83-3.12L67.83-3.12Q64.83 3.24 64.19 5.28L64.19 5.28Q63.11 8.72 63.11 10.04 63.11 11.36 64.07 11.36ZM80.11-24.6L80.11-24.6Q79.63-24.6 79.59-25.4L79.59-25.4Q79.59-27.92 80.45-30.04 81.31-32.16 82.59-32.16L82.59-32.16Q83.07-32.16 83.07-31.56L83.07-31.56Q82.79-31.12 82.55-30.76 82.31-30.4 82.05-29.92 81.79-29.44 81.51-28.84 81.23-28.24 80.99-27.64L80.99-27.64Q80.47-26.32 80.47-25.08L80.47-25.08Q80.47-24.6 80.11-24.6ZM80.95-1.36L80.95-1.36Q80.95 1.44 82.75 1.44L82.75 1.44Q84.43 1.44 85.89-1.32 87.35-4.08 87.35-8.28L87.35-8.28Q87.35-10.32 86.61-14.04 85.87-17.76 85.87-18.9 85.87-20.04 85.95-20.4L85.95-20.4Q85.43-19.56 82.95-14.82 80.47-10.08 78.55-7.32L78.55-7.32Q78.39-7.16 78.11-7.22 77.83-7.28 77.65-7.46 77.47-7.64 77.47-7.72 77.47-7.8 77.51-7.84L77.51-7.84Q79.39-10.56 81.89-15.34 84.39-20.12 86.07-22.48 87.75-24.84 89.39-24.84L89.39-24.84Q90.23-24.84 90.23-24.12L90.23-24.12Q90.23-23.64 89.55-22.84L89.55-22.84Q87.39-20.4 87.39-17.84L87.39-17.84Q87.39-16.32 88.55-11.98 89.71-7.64 89.71-5.68L89.71-5.68Q89.71-2.16 87.75 0.3 85.79 2.76 83.31 2.76L83.31 2.76Q79.79 2.76 79.79-1.28L79.79-1.28Q79.79-4.32 81.65-7.64 83.51-10.96 85.39-12.12L85.39-12.12Q85.75-12.36 85.85-11.84 85.95-11.32 85.71-11.16L85.71-11.16Q83.59-9.96 82.03-6.04L82.03-6.04Q80.95-3.28 80.95-1.36Z" opacity="1" transform="matrix(1,0,0,1,0,0)" fill="#000000" class="wordmark-text-0" data-fill-palette-color="primary" id="text-0"></path></svg></g></svg></g></svg></g></svg></g></svg></g><defs></defs></svg><rect width="395.5199999999999" height="195.83148936170213" fill="none" stroke="none" visibility="hidden"></rect></g></svg></g></svg>